HIERARCHY
ROOT Hips
{
	OFFSET 0.00000 0.00000 0.00000
	CHANNELS 6 Xposition Yposition Zposition Zrotation Yrotation Xrotation 
	JOINT LHipJoint
	{
		OFFSET 0 0 0
		CHANNELS 3 Zrotation Yrotation Xrotation
		JOINT LeftHip
		{
			OFFSET 1.59801 -1.77853 0.57028
			CHANNELS 3 Zrotation Yrotation Xrotation
			JOINT LeftKnee
			{
				OFFSET 2.39439 -6.57854 0.00000
				CHANNELS 3 Zrotation Yrotation Xrotation
				JOINT LeftAnkle
				{
					OFFSET 2.69334 -7.39989 0.00000
					CHANNELS 3 Zrotation Yrotation Xrotation
					JOINT LeftToe
					{
						OFFSET 0.09553 -0.26245 1.73747
						CHANNELS 3 Zrotation Yrotation Xrotation
						End Site
						{
							OFFSET 0.00000 -0.00000 0.89391
						}
					}
				}
			}
		}
	}
	JOINT RHipJoint
	{
		OFFSET 0 0 0
		CHANNELS 3 Zrotation Yrotation Xrotation
		JOINT RightHip
		{
			OFFSET -1.54704 -1.77852 0.57028
			CHANNELS 3 Zrotation Yrotation Xrotation
			JOINT RightKnee
			{
				OFFSET -2.40286 -6.60180 0.00000
				CHANNELS 3 Zrotation Yrotation Xrotation
				JOINT RightAnkle
				{
					OFFSET -2.63873 -7.24984 0.00000
					CHANNELS 3 Zrotation Yrotation Xrotation
					JOINT RightToe
					{
						OFFSET -0.15631 -0.42945 1.84436
						CHANNELS 3 Zrotation Yrotation Xrotation
						End Site
						{
							OFFSET -0.00000 -0.00000 0.95734
						}
					}
				}
			}
		}
	}
	JOINT lowerback
	{
		OFFSET 0 0 0
		CHANNELS 3 Zrotation Yrotation Xrotation
		JOINT Chest
		{
			OFFSET -0.00436 1.89866 -0.04018
			CHANNELS 3 Zrotation Yrotation Xrotation
			JOINT Chest2
			{
				OFFSET 0.02031 1.88273 0.09634
				CHANNELS 3 Zrotation Yrotation Xrotation
				JOINT lowerneck
				{
					OFFSET 0 0 0
					CHANNELS 3 Zrotation Yrotation Xrotation
					JOINT Neck
					{
						OFFSET -0.13105 1.89371 0.23083
						CHANNELS 3 Zrotation Yrotation Xrotation
						JOINT Head
						{
							OFFSET 0.17062 1.83990 -0.54062
							CHANNELS 3 Zrotation Yrotation Xrotation
							End Site
							{
								OFFSET 0.04576 1.94782 -0.21839
							}
						}
					}
				}
				JOINT LeftCollar
				{
					OFFSET 0 0 0
					CHANNELS 3 Zrotation Yrotation Xrotation
					JOINT LeftShoulder
					{
						OFFSET 3.12424 1.09204 0.22226
CHANNELS 3 Zrotation Xrotation Yrotation
						JOINT LeftElbow
						{
OFFSET 0 -5.292770 0.000000
CHANNELS 3 Zrotation Xrotation Yrotation
							JOINT LeftWrist
							{
OFFSET 0 -2.852260 0.000000
CHANNELS 3 Zrotation Xrotation Yrotation
								JOINT lhand
								{
									OFFSET 0 0 0
CHANNELS 3 Zrotation Xrotation Yrotation
									JOINT LFingers
									{
OFFSET 0 -0.602100 0.000000
CHANNELS 3 Zrotation Xrotation Yrotation
										End Site
										{
OFFSET 0 -0.485430 0.000000
										}
									}
								}
								JOINT LThumb
								{
OFFSET 0 0.000000 0.000000
CHANNELS 3 Zrotation Xrotation Yrotation
									End Site
									{
OFFSET 0 -0.492840 0.492840
									}
								}
							}
						}
					}
				}
				JOINT RightCollar
				{
					OFFSET 0 0 0
					CHANNELS 3 Zrotation Yrotation Xrotation
					JOINT RightShoulder
					{
						OFFSET -2.91709 1.01504 0.30199
CHANNELS 3 Zrotation Xrotation Yrotation
						JOINT RightElbow
						{
OFFSET 0 -5.133040 0.000000
CHANNELS 3 Zrotation Xrotation Yrotation
							JOINT RightWrist
							{
OFFSET 0 -2.743050 0.000000
CHANNELS 3 Zrotation Xrotation Yrotation
								JOINT rhand
								{
									OFFSET 0 0 0
CHANNELS 3 Zrotation Xrotation Yrotation
									JOINT RFingers
									{
OFFSET 0 -0.767980 0.000000
CHANNELS 3 Zrotation Xrotation Yrotation
										End Site
										{
OFFSET 0 -0.619160 0.000000
										}
									}
								}
								JOINT RThumb
								{
OFFSET 0 0.000000 0.000000
CHANNELS 3 Zrotation Xrotation Yrotation
									End Site
									{
OFFSET 0 -0.628620 0.628620
									}
								}
							}
						}
					}
				}
			}
		}
	}
}
MOTION
Frames: 9
Frame Time: 0.008333333333333333
0.249700 17.492200 -0.063200 -0.971700 2.862500 7.505100 0.000000 0.000000 0.000000 -17.765700 -23.823800 -0.016600 0.589400 4.915500 13.667700 0.177300 11.500100 -18.643900 0.815100 -5.761100 -16.092900 0.000000 0.000000 0.000000 0.000000 0.000000 0.000000 0.000000 0.000000 0.000000 -0.000000 -0.000000 0.000000 -0.000000 -0.000000 0.000000 0.355500 -0.726700 -0.785300 0.816800 -0.948200 -3.115500 0.654500 -0.471100 -2.747400 -18.623500 -15.502200 -13.546500 22.151000 -23.453500 18.998400 7.022500 -9.978400 13.904500 -0.000000 0.000000 0.000000 5.159100 9.343400 3.947800 1.982900 -3.429700 0.059400 14.652500 37.115400 -29.251400 0.000000 0.000000 0.000000 -7.125000 0.000000 0.000000 -18.503200 59.078600 6.504300 -0.000000 0.000000 0.000000 -5.931800 17.715600 -26.397400 -3.887900 -6.698200 -0.227600 -9.436300 52.451900 -1.776400 0.000000 0.000000 0.000000 7.125000 0.000000 -0.000000 13.181900 28.083900 5.560500
0.248122 17.489925 -0.049035 -0.991398 2.286327 7.348235 0.000000 0.000000 0.000000 -17.976356 -23.152596 0.227483 0.583571 4.891340 13.598806 0.195869 11.521358 -18.886734 0.842892 -5.855730 -16.366504 0.000000 0.000000 0.000000 0.000000 0.000000 0.000000 0.000000 0.000000 0.000000 0.000000 0.000000 0.000000 0.000000 0.000000 0.000000 0.094952 -0.842007 -0.660568 0.831322 -1.103883 -3.103131 0.819778 -0.542148 -2.798354 -18.984772 -15.590187 -12.747720 21.845458 -23.702473 19.626214 6.963363 -10.182564 14.056876 0.000000 0.000000 0.000000 4.703993 8.861705 4.919435 1.509906 -2.613143 0.034475 16.139621 36.910015 -31.198884 0.000000 0.000000 0.000000 -7.125000 0.000000 0.000000 -18.362994 61.271486 7.417689 0.000000 0.000000 0.000000 -5.998057 18.804182 -25.475414 -5.300461 -9.090481 -0.421781 -8.596718 49.215581 -5.110204 0.000000 0.000000 0.000000 7.125000 0.000000 0.000000 13.445650 24.800691 6.744019
0.241180 17.487572 -0.034268 -1.222706 1.621407 7.196877 0.000000 0.000000 0.000000 -17.872496 -22.431959 0.229900 0.604577 4.977122 13.843222 0.252108 11.257883 -19.216222 0.726896 -5.447578 -15.189666 0.000000 0.000000 0.000000 0.000000 0.000000 0.000000 0.000000 0.000000 0.000000 0.000000 0.000000 0.000000 0.000000 0.000000 0.000000 0.226536 -0.847975 -0.584481 0.679365 -1.112907 -3.249387 0.593413 -0.551869 -2.997548 -19.022230 -15.631775 -12.398607 21.171412 -23.926807 20.906970 6.715797 -10.330752 14.458148 0.000000 0.000000 0.000000 4.140048 8.151134 5.714202 1.886212 -3.262942 0.053823 14.955397 34.885022 -31.994397 0.000000 0.000000 0.000000 -7.125000 0.000000 0.000000 -20.297319 61.724799 8.452586 0.000000 0.000000 0.000000 -5.490179 18.093233 -24.807219 -6.381935 -10.897612 -0.609479 -8.660749 47.829589 -8.059368 0.000000 0.000000 0.000000 7.125000 0.000000 0.000000 13.140554 21.897275 7.485881
0.235743 17.486735 -0.029418 -1.170351 1.119849 7.091977 0.000000 0.000000 0.000000 -18.052182 -21.875315 0.361400 0.596578 4.944776 13.751080 0.262513 11.167928 -19.227590 0.717607 -5.413392 -15.091397 0.000000 0.000000 0.000000 0.000000 0.000000 0.000000 0.000000 0.000000 0.000000 0.000000 0.000000 0.000000 0.000000 0.000000 0.000000 0.088070 -0.981549 -0.897814 0.445401 -1.300013 -3.232030 0.428069 -0.645561 -2.803854 -18.837065 -15.612358 -12.336504 20.407678 -24.044667 22.280635 6.411111 -10.402281 14.894250 0.000000 0.000000 0.000000 3.159020 7.367825 6.738269 3.664887 -6.317474 0.202828 9.903729 32.824532 -29.865551 0.000000 0.000000 0.000000 -7.125000 0.000000 0.000000 -23.875093 58.584903 8.237874 0.000000 0.000000 0.000000 -4.814407 16.022500 -23.650349 -7.827249 -13.272367 -0.912185 -7.846083 46.390829 -10.699431 0.000000 0.000000 0.000000 7.125000 0.000000 0.000000 13.527530 19.330131 8.526503
0.230615 17.480360 -0.017371 -1.561726 0.499036 6.626463 0.000000 0.000000 0.000000 -17.906025 -21.070119 0.726815 0.616352 5.024351 13.977991 0.319081 11.007885 -19.671636 0.700531 -5.349593 -14.908536 0.000000 0.000000 0.000000 0.000000 0.000000 0.000000 0.000000 0.000000 0.000000 0.000000 0.000000 0.000000 0.000000 0.000000 0.000000 0.079443 -1.020373 -0.962982 0.541603 -1.350227 -3.210445 0.530716 -0.669378 -2.742033 -18.873563 -15.463809 -11.958072 19.553590 -23.916261 23.648113 6.187685 -10.423545 15.226371 0.000000 0.000000 0.000000 2.033556 6.710080 7.609446 5.990408 -10.245596 0.538334 6.735848 33.794312 -26.981502 0.000000 0.000000 0.000000 -7.125000 0.000000 0.000000 -24.941767 55.325659 6.621711 0.000000 0.000000 0.000000 -4.421759 13.492994 -10.081343 -9.571631 -16.066014 -1.354633 -7.677639 33.994512 -11.051265 0.000000 0.000000 0.000000 7.125000 0.000000 0.000000 13.621732 18.991926 8.695376
0.222961 17.476996 -0.021608 -1.687504 -0.118665 6.110704 0.000000 0.000000 0.000000 -18.000170 -20.288215 1.126673 0.627274 5.068002 14.102598 0.345593 10.893807 -19.831760 0.634108 -5.095119 -14.179998 0.000000 0.000000 0.000000 0.000000 0.000000 0.000000 0.000000 0.000000 0.000000 0.000000 0.000000 0.000000 0.000000 0.000000 0.000000 -0.267274 -0.995984 -1.022007 0.616667 -1.318914 -3.122065 0.798973 -0.644576 -2.608432 -18.886019 -15.313571 -11.614033 18.467028 -23.706767 25.127646 5.881543 -10.428888 15.560487 0.000000 0.000000 0.000000 1.089789 5.450006 5.060379 8.429415 -14.246373 1.055322 4.918535 33.544618 -23.862674 0.000000 0.000000 0.000000 -7.125000 0.000000 0.000000 -24.735818 52.178182 4.602396 0.000000 0.000000 0.000000 -4.201153 11.011117 2.782334 -12.219717 -20.133151 -2.177474 -7.638331 24.335944 -10.784690 0.000000 0.000000 0.000000 7.125000 0.000000 0.000000 13.666246 19.254551 8.642989
0.224294 17.471617 -0.028219 -1.720467 -0.475411 5.622826 0.000000 0.000000 0.000000 -18.165953 -19.877458 1.562896 0.636403 5.104053 14.205496 0.356710 10.906853 -19.966120 0.641163 -5.121357 -14.255311 0.000000 0.000000 0.000000 0.000000 0.000000 0.000000 0.000000 0.000000 0.000000 0.000000 0.000000 0.000000 0.000000 0.000000 0.000000 -0.366602 -0.845371 -1.027378 0.522589 -1.120436 -3.070268 0.754955 -0.544562 -2.555032 -18.939915 -15.234501 -11.401552 17.613825 -23.638484 26.570272 5.625554 -10.471861 16.016252 0.000000 0.000000 0.000000 0.785523 3.335287 -7.957209 10.600746 -17.673030 1.653215 5.635065 24.853429 -22.686160 0.000000 0.000000 0.000000 -7.125000 0.000000 0.000000 -23.410986 51.225496 3.765377 0.000000 0.000000 0.000000 -4.070610 8.458108 12.608552 -15.027921 -24.183546 -3.238268 -8.797628 19.414045 -11.336218 0.000000 0.000000 0.000000 7.125000 0.000000 0.000000 12.829331 18.664925 8.257669
0.222658 17.467251 -0.026440 -1.858510 -0.771952 5.190687 0.000000 0.000000 0.000000 -18.189934 -19.550478 1.970780 0.646901 5.145207 14.323183 0.382809 10.891765 -20.226024 0.596517 -4.944519 -13.750382 0.000000 0.000000 0.000000 0.000000 0.000000 0.000000 0.000000 0.000000 0.000000 0.000000 0.000000 0.000000 0.000000 0.000000 0.000000 -0.510233 -0.783149 -1.348632 0.555915 -1.036592 -2.919546 0.862008 -0.500704 -2.217431 -18.933791 -15.058362 -11.144808 16.977346 -23.398643 27.555638 5.479706 -10.434534 16.246828 0.000000 0.000000 0.000000 0.538159 0.899841 -17.136436 12.995755 -21.280531 2.452168 5.624484 18.519909 -23.202186 0.000000 0.000000 0.000000 -7.125000 0.000000 0.000000 -23.701381 51.695531 4.100505 0.000000 0.000000 0.000000 -4.304656 5.528297 19.821176 -17.710125 -27.783647 -4.413686 -8.780914 17.978242 -11.847433 0.000000 0.000000 0.000000 7.125000 0.000000 0.000000 12.813746 18.162164 8.393869
0.222280 17.463128 -0.017802 -1.912151 -0.713214 4.858173 0.000000 0.000000 0.000000 -18.249187 -19.427639 2.192858 0.672793 5.244933 14.608552 0.391946 10.927496 -20.359609 0.680766 -5.275133 -14.695016 0.000000 0.000000 0.000000 0.000000 0.000000 0.000000 0.000000 0.000000 0.000000 0.000000 0.000000 0.000000 0.000000 0.000000 0.000000 -0.596272 -0.777576 -1.746076 0.499779 -1.028355 -2.848340 0.845749 -0.496984 -1.920827 -18.969652 -15.008625 -10.790435 16.510949 -23.384055 28.349363 5.346257 -10.490434 16.466340 0.000000 0.000000 0.000000 0.540095 -1.530695 -23.840463 14.942079 -24.064858 3.202578 6.075944 13.708486 -23.357010 0.000000 0.000000 0.000000 -7.125000 0.000000 0.000000 -23.362725 51.912068 4.164499 0.000000 0.000000 0.000000 -4.420022 2.759205 25.164601 -20.120153 -30.786331 -5.592877 -8.724183 16.547767 -11.880982 0.000000 0.000000 0.000000 7.125000 0.000000 0.000000 12.851084 18.131794 8.428464
